<svg width="24" height="20" viewBox="0 0 24 20" fill="none" xmlns="http://www.w3.org/2000/svg">
<path d="M22 3.00002H17V1.99999C17 0.896969 16.1031 -3.05176e-05 15 -3.05176e-05H9C7.89698 -3.05176e-05 6.99998 0.896923 6.99998 1.99999V2.99997H2.00002C0.896953 3.00002 0 3.89697 0 4.99998V7.99998C0 9.10305 0.896953 10 2.00002 10H10V9.49998C10 9.22361 10.2237 8.99997 10.5 8.99997H13.5C13.7764 8.99997 14.0001 9.22361 14.0001 9.49998V10H22.0001C23.103 10 24 9.10305 24 7.99998V4.99998C24 3.89697 23.103 3.00002 22 3.00002ZM15 3.00002H9V1.99999H15V3.00002Z" fill="#2D3097"/>
<path d="M23.7226 10.5395C23.5523 10.4551 23.3486 10.4746 23.1982 10.5888C22.8427 10.8579 22.4287 11 21.9999 11H14V12.5C14 12.7764 13.7764 13 13.5 13H10.5C10.2236 13 9.99998 12.7764 9.99998 12.5V11H2.00002C1.5713 11 1.15725 10.8579 0.80175 10.5888C0.650859 10.4736 0.44775 10.4541 0.277312 10.5395C0.107437 10.624 0 10.7973 0 10.9873V18C0 19.103 0.896953 20 2.00002 20H22C23.103 20 24 19.1031 24 18V10.9873C24 10.7973 23.8926 10.624 23.7226 10.5395Z" fill="#2D3097"/>
</svg>
