<svg width="18" height="18" viewBox="0 0 18 18" fill="none" xmlns="http://www.w3.org/2000/svg">
<g clip-path="url(#clip0_106_114)">
<path d="M10.5043 11.0283C10.0565 11.3268 9.53631 11.4846 9 11.4846C8.46373 11.4846 7.94355 11.3268 7.49573 11.0283L0.119848 6.11086C0.0789258 6.08358 0.0390586 6.05513 0 6.02588V14.0836C0 15.0074 0.749707 15.7406 1.65702 15.7406H16.3429C17.2668 15.7406 18 14.9909 18 14.0836V6.02585C17.9608 6.05517 17.9209 6.08368 17.8799 6.111L10.5043 11.0283Z" fill="white"/>
<path d="M0.704883 5.23329L8.08077 10.1507C8.35998 10.3369 8.67997 10.4299 8.99996 10.4299C9.31999 10.4299 9.64002 10.3369 9.91923 10.1507L17.2951 5.23329C17.7365 4.93921 18 4.44702 18 3.91581C18 3.00242 17.2569 2.25935 16.3435 2.25935H1.65646C0.743098 2.25939 0 3.00245 0 3.91669C0 4.44702 0.263531 4.93921 0.704883 5.23329Z" fill="white"/>
</g>
<defs>
<clipPath id="clip0_106_114">
<rect width="18" height="18" fill="white"/>
</clipPath>
</defs>
</svg>
