<svg width="23" height="19" viewBox="0 0 23 19" fill="none" xmlns="http://www.w3.org/2000/svg">
<path d="M2.05323 7.78868C7.88448 5.24868 11.7719 3.57399 13.7157 2.76493C19.2719 0.454614 20.425 0.0533646 21.1781 0.0399271C21.3438 0.0371146 21.7125 0.0780517 21.9531 0.272739C22.1531 0.436802 22.2094 0.658676 22.2376 0.814301C22.2626 0.969926 22.297 1.32461 22.2688 1.60149C21.9688 4.76399 20.6657 12.4384 20.0032 15.9806C19.7251 17.4794 19.1719 17.9819 18.6376 18.0309C17.4751 18.1378 16.5938 17.2634 15.4688 16.5262C13.7094 15.3721 12.7157 14.654 11.0063 13.5281C9.03133 12.2268 10.3125 11.5115 11.4375 10.3427C11.7313 10.0368 16.85 5.38211 16.9469 4.95993C16.9594 4.90711 16.9719 4.71024 16.8532 4.60649C16.7376 4.50243 16.5656 4.53805 16.4406 4.56618C16.2625 4.60618 13.4531 6.46493 8.00309 10.1421C7.20622 10.6902 6.48436 10.9574 5.83436 10.9434C5.12186 10.9281 3.74695 10.5396 2.72508 10.2077C1.47508 9.80055 0.478154 9.58524 0.565654 8.89368C0.609404 8.53368 1.10636 8.16524 2.05323 7.78868Z" fill="white"/>
</svg>
